# xmcd
#
# Track frame offsets:
#	150
#	15809
#	25832
#	35435
#	47288
#	58543
#	69308
#	79305
#	91777
#	107548
#	119510
#	136055
#
# Disc length: 1936 seconds
#
# Revision: 1
# Processed by: cddbd v1.5.1PL0 Copyright (c) Steve Scherf et al.
# Submitted via: audiograbber 1.83.01
#
DISCID=84078e0c
DTITLE=Red Sovine - Phantom 309 (Starday)
DYEAR=1968
DGENRE=
TTITLE0=Phantom 309
TTITLE1=Good Enough For Nothing
TTITLE2=Three Lover Were Losers Today
TTITLE3=Lifetime To Regret
TTITLE4=That's Me
TTITLE5=Anytime
TTITLE6=In Your Heart
TTITLE7=Satisfied Mind
TTITLE8=A Good Life
TTITLE9=Same Old Situation
TTITLE10=Vietnam Deck Of Cards
TTITLE11=Bummin' Around
EXTD=
EXTT0=
EXTT1=
EXTT2=
EXTT3=
EXTT4=
EXTT5=
EXTT6=
EXTT7=
EXTT8=
EXTT9=
EXTT10=
EXTT11=
PLAYORDER=
